<svg id="Layer_1" enable-background="new 0 0 512 512" height="512" viewBox="0 0 512 512" width="512" xmlns="http://www.w3.org/2000/svg"><g><path d="m478.5 504.5h-445c-14.359 0-26-11.641-26-26v-20c0-2.209 1.791-4 4-4h489c2.209 0 4 1.791 4 4v20c0 14.359-11.641 26-26 26z" fill="#a9dbf5"/><path d="m500.5 454.5h-30c2.209 0 4 1.791 4 4v20c0 14.359-11.641 26-26 26h30c14.359 0 26-11.641 26-26v-20c0-2.209-1.791-4-4-4z" fill="#88c3e0"/><path d="m451.001 454.488-389.993.012c-11.045 0-20-8.953-20-19.999l-.008-259.989c0-11.045 8.953-20 19.999-20l389.993-.012c11.045 0 20 8.953 20 19.999l.008 259.989c0 11.046-8.953 20-19.999 20z" fill="#4380a0"/><path d="m471 434.49c0 11.04-8.95 20-20 20h-30c11.05 0 20-8.96 20-20l-.01-259.99c0-11.03-8.92-19.97-19.95-20h29.95c11.05 0 20 8.95 20 20z" fill="#3b7191"/><path d="m441 424.49h-30l-339.99.01-.01-239.99 339.99-.01h30z" fill="#f3f3f3"/><path d="m410.995 184.5h30v239.99h-30z" fill="#e4e4e4"/><path d="m290 478.5h-68c-6.627 0-12-5.373-12-12v-12h92v12c0 6.627-5.373 12-12 12z" fill="#88c3e0"/><g><g fill="#22b5ed"><path d="m205.333 7.5h-23.111c-2.209 0-4 1.791-4 4v31.994c0 2.209 1.791 4 4 4h23.111c2.209 0 4-1.791 4-4v-31.994c0-2.209-1.791-4-4-4z"/><path d="m143.111 47.494h-23.111c-2.209 0-4 1.791-4 4v42.969c0 2.209 1.791 4 4 4h23.111c2.209 0 4-1.791 4-4v-42.969c0-2.209-1.791-4-4-4z"/><path d="m268.556 60.346h-23.111c-2.209 0-4 1.791-4 4v42.969c0 2.209 1.791 4 4 4h23.111c2.209 0 4-1.791 4-4v-42.969c0-2.209-1.791-4-4-4z"/><path d="m364.889 46.181v42.969c0 2.209 1.791 4 4 4h23.111c2.209 0 4-1.791 4-4v-42.969c0-2.209-1.791-4-4-4h-23.111c-2.209 0-4 1.791-4 4z"/><path d="m329.778 15.695h-23.111c-2.209 0-4 1.791-4 4v62.135c0 2.209 1.791 4 4 4h23.111c2.209 0 4-1.791 4-4v-62.135c0-2.209-1.791-4-4-4z"/></g><path d="m360.889 230.005h-23.111c-2.209 0-4-1.791-4-4v-89.395c0-2.209-1.791-4-4-4h-23.111c-2.209 0-4 1.791-4 4v70.551c0 2.209-1.791 4-4 4h-23.111c-2.209 0-4-1.791-4-4v-48.661c0-2.209-1.791-4-4-4h-23.111c-2.209 0-4 1.791-4 4v22c0 2.209-1.791 4-4 4h-23.111c-2.209 0-4-1.791-4-4v-83.351c0-2.209-1.791-4-4-4h-23.111c-2.209 0-4 1.791-4 4v120.957c0 2.209-1.791 4-4 4h-23.111c-2.209 0-4-1.791-4-4v-81.496c0-2.209-1.791-4-4-4h-23.112c-2.209 0-4 1.791-4 4v149.103c0 2.209 1.791 4 4 4h272c2.209 0 4-1.791 4-4v-149.103c0-2.209-1.791-4-4-4h-23.111c-2.209 0-4 1.791-4 4v89.395c0 2.209-1.791 4-4 4z" fill="#29cef6"/></g><path d="m374 376h-236c-12.15 0-22-9.85-22-22v-76c0-12.15 9.85-22 22-22h236c12.15 0 22 9.85 22 22v76c0 12.15-9.85 22-22 22z" fill="#a9dbf5"/><path d="m374 256h-30c12.15 0 22 9.85 22 22v76c0 12.15-9.85 22-22 22h30c12.15 0 22-9.85 22-22v-76c0-12.15-9.85-22-22-22z" fill="#88c3e0"/><path d="m226 206h60v220h-60z" fill="#43809f" transform="matrix(0 1 -1 0 572 60)"/><path d="m191.993 318c-8.284 0-15-6.716-15-15v-17h30v17c0 8.284-6.716 15-15 15z" fill="#f78e36"/><path d="m242 318c-8.284 0-15-6.716-15-15v-17h30v17c0 8.284-6.716 15-15 15z" fill="#f78e36"/><g><path d="m500.5 447h-25.023c1.927-3.756 3.023-8.006 3.023-12.51l-.01-259.99c0-15.163-12.336-27.5-27.5-27.5h-47.49v-10.39c0-6.341-5.159-11.5-11.5-11.5h-23.11c-6.341 0-11.5 5.159-11.5 11.5v10.39h-16.11v-10.39c0-6.341-5.159-11.5-11.5-11.5h-23.11c-6.341 0-11.5 5.159-11.5 11.5v10.391l-27.494.005c-.039 0-.077-.006-.116-.006h-23.12c-.065 0-.128.009-.193.01h-27.417v-49.86c0-6.341-5.159-11.5-11.5-11.5h-23.11c-6.341 0-11.5 5.159-11.5 11.5v49.859h-16.11v-10.399c0-6.341-5.159-11.5-11.5-11.5h-23.11c-6.341 0-11.5 5.159-11.5 11.5v10.399h-47.5c-15.164 0-27.5 12.337-27.5 27.5v17.263c0 4.143 3.358 7.5 7.5 7.5 4.143 0 7.5-3.358 7.5-7.5v-17.263c0-6.893 5.607-12.5 12.5-12.5h47.5v15h-37.5c-1.989 0-3.897.79-5.303 2.197-1.407 1.406-2.197 3.313-2.197 5.303l.01 239.99c0 4.143 3.358 7.5 7.5 7.5l369.99-.009c1.989 0 3.897-.79 5.303-2.197 1.407-1.406 2.197-3.313 2.197-5.303l-.01-239.99c0-4.143-3.358-7.5-7.5-7.5h-37.49v-15h47.49c6.893 0 12.5 5.607 12.5 12.5l.01 259.99c0 6.893-5.607 12.5-12.5 12.5l-389.99.01c-6.893 0-12.5-5.607-12.5-12.5l-.008-210.635c0-4.143-3.358-7.5-7.5-7.5s-7.5 3.358-7.5 7.5l.008 210.635c0 4.5 1.093 8.747 3.018 12.5h-25.028c-6.341 0-11.5 5.159-11.5 11.5v20c0 18.472 15.028 33.5 33.5 33.5h382.369c4.142 0 7.5-3.357 7.5-7.5s-3.358-7.5-7.5-7.5h-382.369c-10.201 0-18.5-8.299-18.5-18.5v-16.5h187.5v4.5c0 10.752 8.748 19.5 19.5 19.5h68c10.752 0 19.5-8.748 19.5-19.5v-4.5h187.5v16.5c0 10.201-8.299 18.5-18.5 18.5h-30.631c-4.142 0-7.5 3.357-7.5 7.5s3.358 7.5 7.5 7.5h30.631c18.472 0 33.5-15.028 33.5-33.5v-20c0-6.341-5.159-11.5-11.5-11.5zm-377-169c0-7.995 6.505-14.5 14.5-14.5h236c7.995 0 14.5 6.505 14.5 14.5v76c0 7.995-6.505 14.5-14.5 14.5h-236c-7.995 0-14.5-6.505-14.5-14.5zm217.78-86h16.11v30.51h-16.11zm16.11-30v15h-16.11v-15zm-78.33 30h16.11v11.66h-16.11zm16.11-15h-16.11v-14.996l16.11-.003zm-62.23-14.99v14.99h-16.11v-14.99zm-47.22-61.36h16.11v46.359h-16.11zm-15 61.36v15h-16.11v-15zm-16.11 30h16.11v22.601h-16.11zm-31.11-51.9h16.11v78c0 6.341 5.159 11.5 11.5 11.5h23.11c6.341 0 11.5-5.159 11.5-11.5v-56.1h16.11v18.49c0 6.082 4.749 11.063 10.732 11.461.253.026.509.039.768.039h23.11c.259 0 .516-.013.768-.039 5.983-.398 10.732-5.379 10.732-11.461v-18.491l16.12-.003v45.154c0 6.341 5.159 11.5 11.5 11.5h23.11c6.341 0 11.5-5.159 11.5-11.5v-67.05h16.11v85.899c0 6.341 5.159 11.5 11.5 11.5h23.11c6.341 0 11.5-5.159 11.5-11.5v-85.899h16.11v112.214c-4.286-2.43-9.232-3.825-14.5-3.825h-236c-5.268 0-10.214 1.395-14.5 3.825zm309.991 51.89.009 224.99-354.991.01-.009-224.99h30v161.99c0 16.267 13.233 29.5 29.5 29.5h236c16.267 0 29.5-13.233 29.5-29.5v-162zm-138.991 274.5c0 2.481-2.019 4.5-4.5 4.5h-68c-2.481 0-4.5-2.019-4.5-4.5v-4.5h77z"/><path d="m182.222 54.994h23.111c6.341 0 11.5-5.159 11.5-11.5v-31.994c0-6.341-5.159-11.5-11.5-11.5h-23.111c-6.341 0-11.5 5.159-11.5 11.5v31.994c0 6.341 5.159 11.5 11.5 11.5zm3.5-39.994h16.111v24.994h-16.111z"/><path d="m120 105.963h23.111c6.341 0 11.5-5.159 11.5-11.5v-42.969c0-6.341-5.159-11.5-11.5-11.5h-23.111c-6.341 0-11.5 5.159-11.5 11.5v42.969c0 6.341 5.159 11.5 11.5 11.5zm3.5-50.969h16.111v35.969h-16.111z"/><path d="m245.444 118.814h23.111c6.341 0 11.5-5.159 11.5-11.5v-42.967c0-6.341-5.159-11.5-11.5-11.5h-23.111c-6.341 0-11.5 5.159-11.5 11.5v42.968c0 6.34 5.159 11.499 11.5 11.499zm3.5-50.967h16.111v35.968h-16.111z"/><path d="m368.889 100.649h23.111c6.341 0 11.5-5.159 11.5-11.5v-42.968c0-6.341-5.159-11.5-11.5-11.5h-23.111c-6.341 0-11.5 5.159-11.5 11.5v42.969c0 6.34 5.158 11.499 11.5 11.499zm3.5-50.968h16.111v35.969h-16.111z"/><path d="m306.667 93.33h23.111c6.341 0 11.5-5.159 11.5-11.5v-62.135c0-6.341-5.159-11.5-11.5-11.5h-23.111c-6.341 0-11.5 5.159-11.5 11.5v62.135c0 6.341 5.158 11.5 11.5 11.5zm3.5-70.135h16.111v55.135h-16.111z"/><path d="m146 353.5h220c4.142 0 7.5-3.357 7.5-7.5v-60c0-4.143-3.358-7.5-7.5-7.5h-45.107c-4.142 0-7.5 3.357-7.5 7.5s3.358 7.5 7.5 7.5h37.607v45h-205v-45h15.993v9.5c0 12.406 10.093 22.5 22.5 22.5s22.5-10.094 22.5-22.5v-9.5h5.007v9.5c0 12.406 10.093 22.5 22.5 22.5s22.5-10.094 22.5-22.5v-9.5h23.393c4.142 0 7.5-3.357 7.5-7.5s-3.358-7.5-7.5-7.5h-141.893c-4.142 0-7.5 3.357-7.5 7.5v60c0 4.143 3.358 7.5 7.5 7.5zm103.5-60v9.5c0 4.136-3.364 7.5-7.5 7.5s-7.5-3.364-7.5-7.5v-9.5zm-50.007 0v9.5c0 4.136-3.364 7.5-7.5 7.5s-7.5-3.364-7.5-7.5v-9.5z"/></g></g></svg>