<svg id="Layer_1" enable-background="new 0 0 512 512" height="512" viewBox="0 0 512 512" width="512" xmlns="http://www.w3.org/2000/svg"><g><path d="m420.501 204.628c-.557 3.948-1.887 9.603-3.075 14.198-1.11 4.292-4.973 7.294-9.406 7.294h-13.575c-4.433 0-8.297-3.002-9.406-7.294-1.188-4.595-2.518-10.25-3.075-14.198-.415-2.942-2.182-5.517-4.756-7l-12.543-7.224c-2.572-1.481-5.682-1.722-8.435-.612-3.713 1.498-9.311 3.182-13.905 4.456-4.267 1.183-8.792-.656-11.01-4.488l-6.779-11.712c-2.22-3.836-1.55-8.683 1.617-11.783 3.399-3.327 7.649-7.31 10.801-9.766 2.342-1.825 3.692-4.64 3.692-7.609v-14.43c0-2.969-1.35-5.784-3.692-7.609-3.152-2.456-7.402-6.438-10.801-9.766-3.167-3.1-3.837-7.947-1.617-11.783l6.779-11.712c2.218-3.832 6.744-5.671 11.01-4.488 4.594 1.274 10.192 2.958 13.905 4.456 2.752 1.11 5.863.869 8.435-.612l12.543-7.224c2.574-1.483 4.342-4.058 4.756-7 .557-3.948 1.887-9.603 3.075-14.198 1.11-4.292 4.973-7.294 9.406-7.294h13.575c4.433 0 8.297 3.002 9.406 7.294 1.188 4.595 2.518 10.25 3.075 14.198.415 2.942 2.182 5.517 4.756 7l12.543 7.224c2.572 1.481 5.682 1.722 8.435.612 3.713-1.498 9.311-3.182 13.905-4.456 4.267-1.183 8.792.656 11.01 4.488l6.779 11.712c2.22 3.836 1.55 8.683-1.617 11.783-3.399 3.327-7.649 7.31-10.801 9.766-2.342 1.825-3.692 4.64-3.692 7.609v14.43c0 2.969 1.35 5.784 3.692 7.609 3.152 2.456 7.402 6.438 10.801 9.766 3.167 3.1 3.837 7.947 1.617 11.783l-6.779 11.712c-2.218 3.832-6.744 5.671-11.01 4.488-4.594-1.274-10.192-2.958-13.905-4.456-2.752-1.11-5.863-.869-8.435.612l-12.543 7.224c-2.574 1.483-4.341 4.058-4.756 7zm14.154-62.952c0-18.414-14.964-33.341-33.424-33.341s-33.424 14.927-33.424 33.341 14.964 33.341 33.424 33.341 33.424-14.927 33.424-33.341z" fill="#f78e36"/><path d="m132.5 415.5h30v29h-30z" fill="#43809f"/><path d="m7.5 474.5h497v30h-497z" fill="#43809f"/><path d="m286 69.47h-277.26l17.21-51.72c2.04-6.11 7.92-10.25 14.55-10.25h214c6.63 0 12.51 4.14 14.55 10.25z" fill="#29cef6"/><path d="m269.05 17.75c-2.04-6.11-7.92-10.25-14.55-10.25h-30c6.63 0 12.51 4.14 14.55 10.25l16.95 51.72h30z" fill="#22b5ed"/><path d="m265.5 175.5h-236c-12.15 0-22-9.85-22-22v-76c0-12.15 9.85-22 22-22h236c12.15 0 22 9.85 22 22v76c0 12.15-9.85 22-22 22z" fill="#a9dbf5"/><path d="m265.5 55.5h-30c12.15 0 22 9.85 22 22v76c0 12.15-9.85 22-22 22h30c12.15 0 22-9.85 22-22v-76c0-12.15-9.85-22-22-22z" fill="#88c3e0"/><path d="m117.5 5.5h60v220h-60z" fill="#43809f" transform="matrix(0 1 -1 0 263 -32)"/><path d="m83.493 117.5c-8.284 0-15-6.716-15-15v-17h30v17c0 8.284-6.716 15-15 15z" fill="#f78e36"/><path d="m133.5 117.5c-8.284 0-15-6.716-15-15v-17h30v17c0 8.284-6.716 15-15 15z" fill="#f78e36"/><path d="m265.5 295.5h-236c-12.15 0-22-9.85-22-22v-76c0-12.15 9.85-22 22-22h236c12.15 0 22 9.85 22 22v76c0 12.15-9.85 22-22 22z" fill="#88c3e0"/><path d="m265.5 175.5h-30c12.15 0 22 9.85 22 22v76c0 12.15-9.85 22-22 22h30c12.15 0 22-9.85 22-22v-76c0-12.15-9.85-22-22-22z" fill="#6eabc9"/><path d="m117.5 125.5h60v220h-60z" fill="#43809f" transform="matrix(0 1 -1 0 383 88)"/><path d="m83.493 237.5c-8.284 0-15-6.716-15-15v-17h30v17c0 8.284-6.716 15-15 15z" fill="#f78e36"/><path d="m133.5 237.5c-8.284 0-15-6.716-15-15v-17h30v17c0 8.284-6.716 15-15 15z" fill="#f78e36"/><path d="m265.5 415.5h-236c-12.15 0-22-9.85-22-22v-76c0-12.15 9.85-22 22-22h236c12.15 0 22 9.85 22 22v76c0 12.15-9.85 22-22 22z" fill="#a9dbf5"/><path d="m265.5 295.5h-30c12.15 0 22 9.85 22 22v76c0 12.15-9.85 22-22 22h30c12.15 0 22-9.85 22-22v-76c0-12.15-9.85-22-22-22z" fill="#88c3e0"/><path d="m117.5 245.5h60v220h-60z" fill="#43809f" transform="matrix(0 1 -1 0 503 208)"/><g fill="#f78e36"><path d="m83.493 357.5c-8.284 0-15-6.716-15-15v-17h30v17c0 8.284-6.716 15-15 15z"/><path d="m133.5 357.5c-8.284 0-15-6.716-15-15v-17h30v17c0 8.284-6.716 15-15 15z"/><path d="m192.5 474.5v30h-90v-30h30v-30h30v30z"/></g><path d="m426.353 388.887 43.472 43.472c7.685 7.685 7.685 20.145 0 27.831l-19.401 19.401c-7.685 7.685-20.145 7.685-27.831 0l-43.472-43.472c-4.427-4.427-8.239-9.43-11.333-14.873l-4.495-7.909c-3.094-5.443-6.905-10.446-11.333-14.873l-23.822-23.822 36.736-36.736 23.822 23.822c4.427 4.427 9.43 8.239 14.873 11.333l7.909 4.495c5.445 3.092 10.448 6.903 14.875 11.331z" fill="#ffc328"/><path d="m411.48 377.554-7.909-4.495c-5.443-3.094-10.446-6.905-14.874-11.333l-23.822-23.822-21.213 21.213 23.822 23.822c4.427 4.427 9.43 8.239 14.874 11.333l7.909 4.495c5.443 3.094 10.446 6.905 14.873 11.332l43.472 43.472c7.379 7.379 7.652 19.149.86 26.879.32-.282.646-.555.952-.86l19.401-19.401c7.685-7.685 7.685-20.145 0-27.831l-43.472-43.472c-4.427-4.426-9.43-8.238-14.873-11.332z" fill="#ffb200"/><path d="m365.464 344.117-31.113 31.113c-5.834 5.834-15.38 5.834-21.213 0-5.834-5.834-5.834-15.38 0-21.213l31.113-31.113c5.834-5.834 15.38-5.834 21.213 0 5.834 5.833 5.834 15.379 0 21.213z" fill="#f3f3f3"/><path d="m344.251 322.904-21.213 21.213c5.834-5.834 15.38-5.834 21.213 0 5.834 5.834 5.834 15.38 0 21.213l21.213-21.213c5.834-5.834 5.834-15.38 0-21.213-5.833-5.834-15.379-5.834-21.213 0z" fill="#e4e4e4"/><g><path d="m401.231 182.518c22.565 0 40.924-18.321 40.924-40.842s-18.358-40.842-40.924-40.842-40.924 18.321-40.924 40.842 18.359 40.842 40.924 40.842zm0-66.684c14.294 0 25.924 11.593 25.924 25.842s-11.629 25.842-25.924 25.842-25.924-11.593-25.924-25.842 11.63-25.842 25.924-25.842z"/><path d="m332.342 150.584c-3.616 2.817-8.216 7.168-11.437 10.321-5.623 5.503-6.799 14.098-2.862 20.899l6.779 11.712c3.925 6.784 11.95 10.055 19.505 7.959 4.355-1.207 10.442-3.008 14.706-4.728.595-.239 1.301-.182 1.888.155l12.544 7.225c.582.335.982.913 1.072 1.547.64 4.536 2.115 10.676 3.241 15.028 1.965 7.605 8.819 12.917 16.667 12.917h13.575c7.848 0 14.702-5.312 16.668-12.917 1.125-4.351 2.6-10.489 3.24-15.028.089-.634.49-1.212 1.073-1.548l12.543-7.224c.585-.337 1.291-.396 1.885-.156 4.264 1.721 10.352 3.521 14.707 4.729 7.559 2.094 15.581-1.177 19.506-7.959l6.778-11.711c3.938-6.803 2.761-15.396-2.861-20.899-3.223-3.155-7.824-7.507-11.437-10.321-.502-.392-.802-1.025-.802-1.694v-14.43c0-.669.3-1.303.801-1.693 3.614-2.815 8.215-7.167 11.438-10.321 5.623-5.504 6.799-14.098 2.862-20.899l-6.778-11.712c-3.925-6.783-11.947-10.053-19.505-7.959-4.356 1.208-10.444 3.008-14.706 4.728-.596.239-1.302.182-1.888-.155l-12.544-7.226c-.582-.335-.983-.914-1.072-1.547-.64-4.539-2.115-10.678-3.24-15.029-1.967-7.604-8.821-12.916-16.668-12.916h-13.575c-7.848 0-14.702 5.312-16.667 12.917-1.125 4.353-2.601 10.492-3.241 15.028-.089.634-.49 1.212-1.072 1.548l-12.544 7.224c-.585.338-1.292.396-1.885.156-4.266-1.721-10.353-3.521-14.707-4.729-7.561-2.096-15.581 1.176-19.506 7.959l-6.779 11.712c-3.937 6.802-2.76 15.396 2.862 20.898 3.222 3.154 7.821 7.505 11.437 10.322.502.392.802 1.024.802 1.693v14.43c-.002.67-.302 1.302-.803 1.694zm9.219-29.648c-2.39-1.862-6-5.133-10.164-9.21-.72-.704-.873-1.8-.372-2.665l6.779-11.712c.504-.871 1.538-1.29 2.516-1.018 5.629 1.561 10.283 3.046 13.105 4.185 4.907 1.979 10.367 1.589 14.981-1.069l12.543-7.223c4.624-2.663 7.701-7.201 8.441-12.453.422-2.997 1.456-7.744 2.91-13.368.254-.983 1.136-1.671 2.145-1.671h13.575c1.009 0 1.891.688 2.146 1.671 1.453 5.621 2.486 10.368 2.91 13.369.741 5.251 3.817 9.79 8.44 12.451l12.542 7.224c4.614 2.656 10.074 3.048 14.985 1.068 2.819-1.137 7.472-2.623 13.104-4.184.976-.273 2.01.146 2.514 1.018l6.779 11.713c.5.864.348 1.96-.373 2.665-4.165 4.077-7.774 7.348-10.165 9.21-4.183 3.259-6.581 8.188-6.581 13.524v14.43c0 5.336 2.398 10.266 6.582 13.525 2.389 1.861 5.999 5.132 10.164 9.21.72.704.873 1.8.372 2.665l-6.778 11.712c-.504.871-1.539 1.29-2.516 1.018-5.63-1.561-10.284-3.047-13.105-4.185-4.909-1.979-10.369-1.589-14.982 1.069l-12.542 7.223c-4.624 2.662-7.7 7.201-8.441 12.452v.001c-.423 3-1.456 7.747-2.909 13.368-.254.983-1.137 1.671-2.146 1.671h-13.575c-1.009 0-1.891-.687-2.145-1.671-1.454-5.624-2.487-10.371-2.91-13.368-.74-5.252-3.817-9.79-8.44-12.452l-12.542-7.224c-2.669-1.537-5.622-2.315-8.587-2.315-2.161 0-4.328.413-6.397 1.247-2.82 1.138-7.473 2.623-13.104 4.184-.976.272-2.01-.147-2.514-1.018l-6.779-11.712c-.5-.865-.348-1.961.373-2.666 4.164-4.076 7.773-7.347 10.164-9.209 4.183-3.26 6.582-8.189 6.582-13.525v-14.43c-.003-5.336-2.402-10.266-6.585-13.525z"/><path d="m257.5 78h-220c-4.142 0-7.5 3.357-7.5 7.5v60c0 4.143 3.358 7.5 7.5 7.5h220c4.142 0 7.5-3.357 7.5-7.5v-60c0-4.143-3.358-7.5-7.5-7.5zm-116.5 15v9.5c0 4.136-3.364 7.5-7.5 7.5s-7.5-3.364-7.5-7.5v-9.5zm-50.007 0v9.5c0 4.136-3.364 7.5-7.5 7.5s-7.5-3.364-7.5-7.5v-9.5zm159.007 45h-205v-45h15.993v9.5c0 12.406 10.093 22.5 22.5 22.5s22.5-10.094 22.5-22.5v-9.5h5.007v9.5c0 12.406 10.093 22.5 22.5 22.5s22.5-10.094 22.5-22.5v-9.5h94z"/><path d="m257.5 393c4.142 0 7.5-3.357 7.5-7.5v-60c0-4.143-3.358-7.5-7.5-7.5h-220c-4.142 0-7.5 3.357-7.5 7.5v60c0 4.143 3.358 7.5 7.5 7.5zm-116.5-60v9.5c0 4.136-3.364 7.5-7.5 7.5s-7.5-3.364-7.5-7.5v-9.5zm-50.007 0v9.5c0 4.136-3.364 7.5-7.5 7.5s-7.5-3.364-7.5-7.5v-9.5zm-45.993 0h15.993v9.5c0 12.406 10.093 22.5 22.5 22.5s22.5-10.094 22.5-22.5v-9.5h5.007v9.5c0 12.406 10.093 22.5 22.5 22.5s22.5-10.094 22.5-22.5v-9.5h94v45h-205z"/><path d="m504.5 467h-30.883l1.507-1.507c5.135-5.136 7.964-11.962 7.964-19.222 0-7.262-2.83-14.087-7.964-19.215l-43.464-43.465c-4.872-4.882-10.412-9.107-16.477-12.564l-7.909-4.489c-4.853-2.757-9.318-6.158-13.271-10.111l-17.371-17.372c1.88-7.437-.059-15.648-5.865-21.456-8.772-8.771-23.047-8.771-31.819 0l-10.253 10.253-38.4-38.4c2.972-4.602 4.705-10.077 4.705-15.952v-76c0-8.736-3.82-16.594-9.874-22 6.054-5.406 9.874-13.264 9.874-22v-76c0-3.612-.656-7.073-1.849-10.274-.01-.03-.014-.062-.024-.092l-16.963-51.759c-3.071-9.196-11.776-15.375-21.664-15.375h-158.631c-4.142 0-7.5 3.357-7.5 7.5s3.358 7.5 7.5 7.5h158.631c3.424 0 6.413 2.06 7.423 5.086l9.334 28.482c-1.863-.37-3.787-.568-5.757-.568h-236c-2.023 0-3.999.206-5.909.595l9.473-28.47c1.024-3.065 4.012-5.125 7.436-5.125h23.276c4.142 0 7.5-3.357 7.5-7.5s-3.358-7.5-7.5-7.5h-23.276c-9.888 0-18.593 6.179-21.666 15.382l-17.21 51.72c-.203.611-.319 1.237-.361 1.865-.818 2.703-1.263 5.567-1.263 8.533v76c0 8.736 3.82 16.594 9.874 22-6.054 5.406-9.874 13.264-9.874 22v76c0 8.736 3.82 16.594 9.874 22-6.054 5.406-9.874 13.264-9.874 22v33.991c0 4.143 3.358 7.5 7.5 7.5s7.5-3.357 7.5-7.5v-33.991c0-7.995 6.505-14.5 14.5-14.5h236c7.995 0 14.5 6.505 14.5 14.5v76c0 7.995-6.505 14.5-14.5 14.5h-236c-7.995 0-14.5-6.505-14.5-14.5v-9.637c0-4.143-3.358-7.5-7.5-7.5s-7.5 3.357-7.5 7.5v9.637c0 16.267 13.233 29.5 29.5 29.5h95.5v44h-117.5c-4.142 0-7.5 3.357-7.5 7.5v30c0 4.143 3.358 7.5 7.5 7.5h497c4.142 0 7.5-3.357 7.5-7.5v-30c0-4.143-3.358-7.5-7.5-7.5zm-104.633-87.418 7.899 4.483c4.886 2.785 9.353 6.19 13.281 10.128l43.473 43.474c2.3 2.298 3.567 5.354 3.567 8.604 0 3.253-1.269 6.313-3.571 8.615l-19.404 19.403c-2.297 2.301-5.353 3.567-8.604 3.567-3.253 0-6.313-1.268-8.616-3.571l-43.47-43.47c-3.954-3.953-7.356-8.418-10.114-13.275l-4.495-7.9c-3.417-6.027-7.64-11.573-12.551-16.484l-15.116-15.116 26.128-26.128 15.121 15.122c4.906 4.904 10.447 9.126 16.472 12.548zm-50.313-51.375c1.462-1.462 3.383-2.193 5.304-2.193 1.92 0 3.841.731 5.303 2.192 2.924 2.925 2.924 7.684 0 10.607l-31.113 31.113c-1.405 1.404-3.288 2.179-5.303 2.179s-3.898-.774-5.303-2.179-2.179-3.289-2.179-5.304c0-2.016.773-3.898 2.178-5.303l15.554-15.554c.001-.001.002-.001.003-.002s.002-.002.002-.002zm-334.554-174.707v-76c0-7.995 6.505-14.5 14.5-14.5h236c7.995 0 14.5 6.505 14.5 14.5v76c0 7.995-6.505 14.5-14.5 14.5h-236c-7.995 0-14.5-6.505-14.5-14.5zm14.5 134.5c-7.995 0-14.5-6.505-14.5-14.5v-76c0-7.995 6.505-14.5 14.5-14.5h236c7.995 0 14.5 6.505 14.5 14.5v76c0 1.691-.306 3.308-.84 4.818l-14.16-14.16v-58.658c0-4.143-3.358-7.5-7.5-7.5h-220c-4.142 0-7.5 3.357-7.5 7.5v60c0 4.143 3.358 7.5 7.5 7.5h215.128l14.849 14.849c-.648.089-1.305.151-1.977.151zm198.432-60.91c-2.928-2.928-7.677-2.928-10.606 0-2.929 2.93-2.929 7.678 0 10.607l20.302 20.303h-192.628v-45h15.993v9.5c0 12.406 10.093 22.5 22.5 22.5s22.5-10.094 22.5-22.5v-9.5h5.007v9.5c0 12.406 10.093 22.5 22.5 22.5s22.5-10.094 22.5-22.5v-9.5h94v36.158zm-151.939-14.09h15v9.5c0 4.136-3.364 7.5-7.5 7.5s-7.5-3.364-7.5-7.5zm50.007 0h15v9.5c0 4.136-3.364 7.5-7.5 7.5s-7.5-3.364-7.5-7.5zm29 210v14h-15v-14zm-140 59h80v15h-80zm95 15v-15h22.5c4.142 0 7.5-3.357 7.5-7.5v-22.5h15v22.5c0 4.143 3.358 7.5 7.5 7.5h22.5v15zm387 0h-297v-15h87.5c4.142 0 7.5-3.357 7.5-7.5s-3.358-7.5-7.5-7.5h-117.5v-44h95.5c16.267 0 29.5-13.233 29.5-29.5v-76c0-.748-.037-1.486-.092-2.22l23.18 23.18-10.253 10.253c-4.238 4.238-6.572 9.888-6.572 15.91 0 6.021 2.333 11.672 6.572 15.91 4.238 4.237 9.888 6.572 15.91 6.572 1.899 0 3.753-.258 5.545-.708l17.367 17.367c3.957 3.956 7.358 8.422 10.114 13.285l4.498 7.905c3.421 6.023 7.643 11.564 12.548 16.47l25.576 25.576h-78.409c-4.142 0-7.5 3.357-7.5 7.5s3.358 7.5 7.5 7.5h93.409l2.893 2.893c5.136 5.137 11.963 7.965 19.223 7.965 7.262 0 14.087-2.83 19.214-7.964l2.894-2.894h38.383z"/></g></g></svg>