<svg width="75" height="28" xmlns="http://www.w3.org/2000/svg"><g fill="none" fill-rule="evenodd"><path d="M14 0l.454 1.468h1.468l-1.188.907.454 1.468L14 2.935l-1.187.908.453-1.468-1.188-.907h1.468zm0 24.157l.454 1.468h1.468l-1.188.907.454 1.468L14 27.093 12.813 28l.453-1.468-1.188-.907h1.468zm6.04-21.96l.453 1.467h1.468l-1.188.908.454 1.467-1.188-.907-1.187.907.453-1.467-1.187-.908h1.468zm4.94 4.162l.454 1.468h1.468l-1.188.908.454 1.468-1.187-.908-1.188.908.454-1.468-1.188-.908h1.468zm0 11.759l.454 1.468h1.468l-1.188.907.454 1.468-1.187-.907-1.188.907.454-1.468-1.188-.907h1.468zM3.02 6.359l.453 1.468h1.468l-1.187.908.453 1.468-1.187-.908-1.188.908.454-1.468-1.188-.908h1.468zm23.059 5.72l.453 1.467H28l-1.188.907.454 1.469-1.187-.907-1.188.907.454-1.469-1.188-.907h1.468zm-24.157 0l.453 1.467h1.468l-1.188.907.454 1.469-1.187-.907-1.188.907.454-1.469L0 13.546h1.468zm1.098 6.039l.453 1.468h1.468l-1.187.907.453 1.468-1.187-.907-1.188.907.454-1.468-1.188-.907h1.468zm18.117 4.94l.454 1.469h1.468l-1.188.907.454 1.468-1.188-.907-1.188.907.454-1.468-1.187-.907h1.468zM7.961 2.197l.453 1.468h1.468l-1.187.908.454 1.467-1.188-.907-1.188.907.454-1.467-1.188-.908h1.468zM6.863 23.06l.453 1.468h1.468l-1.187.907.453 1.468-1.187-.907-1.188.907.454-1.468-1.188-.907H6.41z" fill="#EA6C00" fill-rule="nonzero"/><path d="M17.907 12.36l-4.317 4.41a.88.88 0 0 1-.546.23h-.372a.88.88 0 0 1-.546-.23l-2.033-2.082a.332.332 0 0 1 0-.461l.8-.816a.317.317 0 0 1 .453 0l1.3 1.32a.317.317 0 0 0 .452 0l3.56-3.635a.318.318 0 0 1 .452-.002l.796.806a.33.33 0 0 1 .001.46z" fill="#309670"/><path d="M33 7.253c0 3.228 2.473 5.253 5.51 5.253 1.923 0 3.404-.776 4.502-1.98V6.554h-4.914V8.73h2.335v.853c-.412.335-1.13.609-1.923.609-1.664 0-2.839-1.28-2.839-2.939 0-1.66 1.175-2.939 2.839-2.939.961 0 1.74.533 2.152 1.203L42.86 4.36C42.112 3.096 40.738 2 38.51 2 35.473 2 33 4.025 33 7.253zm11.554 5.07V2.167h4.274c3.205 0 5.51 1.919 5.51 5.07 0 3.153-2.305 5.086-5.495 5.086h-4.289zm2.625-2.284h1.649c1.785 0 2.823-1.294 2.823-2.801 0-1.568-.946-2.787-2.808-2.787h-1.664v5.588zm8.471 2.284V2.167h5.098c2.29 0 3.54 1.538 3.54 3.38 0 1.828-1.25 3.335-3.54 3.335h-2.473v3.441H55.65zm5.968-6.79c0-.7-.52-1.158-1.221-1.158h-2.122V6.66h2.122c.702 0 1.22-.441 1.22-1.127zm9.524 6.79l-1.71-3.44H68.09v3.44h-2.625V2.167h5.098c2.259 0 3.54 1.493 3.54 3.38 0 1.767-1.083 2.71-2.03 3.046l2.077 3.73h-3.007zm.29-6.806c0-.7-.58-1.142-1.267-1.142h-2.076V6.66h2.076c.687 0 1.267-.441 1.267-1.142zm-36.38 14.419h1.562c.327 0 .572-.073.736-.218.163-.145.245-.382.245-.708 0-.315-.082-.544-.245-.686-.164-.142-.409-.214-.736-.214h-1.562v1.826zm-1.425-2.933h3.496c.29 0 .552.047.785.14.233.094.433.223.6.386.166.164.293.353.381.568.088.215.132.446.132.695 0 .381-.08.71-.24.99-.161.278-.423.49-.786.635v.018a1.1 1.1 0 0 1 .717.577c.073.136.126.286.159.45s.056.326.068.49l.018.363c.006.14.017.282.032.427.015.145.04.283.073.413.033.13.083.24.15.331h-1.426a2.514 2.514 0 0 1-.146-.735 10.98 10.98 0 0 0-.081-.817c-.049-.34-.152-.588-.31-.745-.156-.157-.414-.236-.77-.236h-1.427v2.533h-1.425v-6.483zm6.783 0h4.85V18.2h-3.424v1.39h3.142v1.108h-3.142v1.589h3.496v1.198H40.41v-6.483zm7.746 3.977h1.68l-.817-2.38h-.018l-.845 2.38zm.137-3.977h1.462l2.424 6.483H50.7l-.49-1.443h-2.425l-.509 1.443h-1.434l2.452-6.483zm6.102 5.285h1.271c.206 0 .406-.034.6-.1a1.32 1.32 0 0 0 .517-.332c.152-.154.273-.355.364-.603.09-.249.136-.551.136-.909a3.78 3.78 0 0 0-.096-.885 1.766 1.766 0 0 0-.313-.677 1.39 1.39 0 0 0-.576-.43c-.24-.1-.535-.15-.886-.15h-1.017v4.086zm-1.426-5.285h2.797c.418 0 .807.066 1.167.2.36.133.672.332.936.599.263.266.469.6.617.999.148.4.223.868.223 1.407 0 .472-.061.908-.182 1.308s-.304.745-.55 1.035c-.245.29-.55.52-.917.686-.366.166-.797.25-1.294.25H52.97v-6.484zm8.636 3.959l-2.379-3.96h1.598l1.517 2.561 1.507-2.56h1.59l-2.407 3.995v2.488h-1.426v-2.524z" fill="#2B3945"/></g></svg>